<mxfile host="app.diagrams.net" modified="2024-05-24T12:09:03.186Z" agent="Mozilla/5.0 (Windows NT 10.0; Win64; x64) AppleWebKit/537.36 (KHTML, like Gecko) Chrome/124.0.0.0 Safari/537.36" etag="EDVvA6CDKPpDL23GOILH" version="24.4.7" type="device">
  <diagram name="Strona-1" id="bbeX7pLa5lIhiT3tRmJz">
    <mxGraphModel dx="1434" dy="746" grid="1" gridSize="10" guides="1" tooltips="1" connect="1" arrows="1" fold="1" page="1" pageScale="1" pageWidth="827" pageHeight="1169" math="0" shadow="0">
      <root>
        <mxCell id="0" />
        <mxCell id="1" parent="0" />
        <mxCell id="yrEcm2zEpX3LF88a9UMl-4" style="edgeStyle=orthogonalEdgeStyle;rounded=0;orthogonalLoop=1;jettySize=auto;html=1;" edge="1" parent="1" source="yrEcm2zEpX3LF88a9UMl-1" target="yrEcm2zEpX3LF88a9UMl-2">
          <mxGeometry relative="1" as="geometry" />
        </mxCell>
        <mxCell id="yrEcm2zEpX3LF88a9UMl-1" value="otworzenie aplikacji" style="ellipse;whiteSpace=wrap;html=1;aspect=fixed;" vertex="1" parent="1">
          <mxGeometry x="50" y="20" width="80" height="80" as="geometry" />
        </mxCell>
        <mxCell id="yrEcm2zEpX3LF88a9UMl-12" value="" style="edgeStyle=orthogonalEdgeStyle;rounded=0;orthogonalLoop=1;jettySize=auto;html=1;" edge="1" parent="1" source="yrEcm2zEpX3LF88a9UMl-2" target="yrEcm2zEpX3LF88a9UMl-11">
          <mxGeometry relative="1" as="geometry" />
        </mxCell>
        <mxCell id="yrEcm2zEpX3LF88a9UMl-2" value="użytkownik loguje się do aplikacji" style="rounded=1;whiteSpace=wrap;html=1;" vertex="1" parent="1">
          <mxGeometry x="190" y="30" width="120" height="60" as="geometry" />
        </mxCell>
        <mxCell id="yrEcm2zEpX3LF88a9UMl-14" value="" style="edgeStyle=orthogonalEdgeStyle;rounded=0;orthogonalLoop=1;jettySize=auto;html=1;" edge="1" parent="1" source="yrEcm2zEpX3LF88a9UMl-11" target="yrEcm2zEpX3LF88a9UMl-13">
          <mxGeometry relative="1" as="geometry" />
        </mxCell>
        <mxCell id="yrEcm2zEpX3LF88a9UMl-11" value="użytkownik wybiera język, do nauki, określa swój poziom" style="whiteSpace=wrap;html=1;rounded=1;" vertex="1" parent="1">
          <mxGeometry x="350" y="30" width="120" height="60" as="geometry" />
        </mxCell>
        <mxCell id="yrEcm2zEpX3LF88a9UMl-16" value="" style="edgeStyle=orthogonalEdgeStyle;rounded=0;orthogonalLoop=1;jettySize=auto;html=1;" edge="1" parent="1" source="yrEcm2zEpX3LF88a9UMl-13" target="yrEcm2zEpX3LF88a9UMl-15">
          <mxGeometry relative="1" as="geometry" />
        </mxCell>
        <mxCell id="yrEcm2zEpX3LF88a9UMl-13" value="wyświetlenie testu znajomości języka" style="whiteSpace=wrap;html=1;rounded=1;" vertex="1" parent="1">
          <mxGeometry x="350" y="110" width="120" height="60" as="geometry" />
        </mxCell>
        <mxCell id="yrEcm2zEpX3LF88a9UMl-20" value="" style="edgeStyle=orthogonalEdgeStyle;rounded=0;orthogonalLoop=1;jettySize=auto;html=1;" edge="1" parent="1" source="yrEcm2zEpX3LF88a9UMl-15" target="yrEcm2zEpX3LF88a9UMl-19">
          <mxGeometry relative="1" as="geometry" />
        </mxCell>
        <mxCell id="yrEcm2zEpX3LF88a9UMl-22" value="" style="edgeStyle=orthogonalEdgeStyle;rounded=0;orthogonalLoop=1;jettySize=auto;html=1;" edge="1" parent="1" source="yrEcm2zEpX3LF88a9UMl-15" target="yrEcm2zEpX3LF88a9UMl-21">
          <mxGeometry relative="1" as="geometry" />
        </mxCell>
        <mxCell id="yrEcm2zEpX3LF88a9UMl-15" value="użytkownik rozpoczyna naukę" style="whiteSpace=wrap;html=1;rounded=1;" vertex="1" parent="1">
          <mxGeometry x="350" y="220" width="120" height="60" as="geometry" />
        </mxCell>
        <mxCell id="yrEcm2zEpX3LF88a9UMl-26" value="" style="edgeStyle=orthogonalEdgeStyle;rounded=0;orthogonalLoop=1;jettySize=auto;html=1;" edge="1" parent="1" source="yrEcm2zEpX3LF88a9UMl-19" target="yrEcm2zEpX3LF88a9UMl-25">
          <mxGeometry relative="1" as="geometry" />
        </mxCell>
        <mxCell id="yrEcm2zEpX3LF88a9UMl-19" value="użytkownik może kontynuować naukę sam" style="whiteSpace=wrap;html=1;rounded=1;" vertex="1" parent="1">
          <mxGeometry x="150" y="280" width="120" height="60" as="geometry" />
        </mxCell>
        <mxCell id="yrEcm2zEpX3LF88a9UMl-24" value="" style="edgeStyle=orthogonalEdgeStyle;rounded=0;orthogonalLoop=1;jettySize=auto;html=1;" edge="1" parent="1" source="yrEcm2zEpX3LF88a9UMl-21" target="yrEcm2zEpX3LF88a9UMl-23">
          <mxGeometry relative="1" as="geometry" />
        </mxCell>
        <mxCell id="yrEcm2zEpX3LF88a9UMl-21" value="użytkownik może wykupić pomoc tutora, oraz konto premium" style="whiteSpace=wrap;html=1;rounded=1;" vertex="1" parent="1">
          <mxGeometry x="550" y="280" width="120" height="60" as="geometry" />
        </mxCell>
        <mxCell id="yrEcm2zEpX3LF88a9UMl-23" value="tutor komunikuje się z uczniem w ustalone dni" style="whiteSpace=wrap;html=1;rounded=1;" vertex="1" parent="1">
          <mxGeometry x="550" y="435" width="120" height="60" as="geometry" />
        </mxCell>
        <mxCell id="yrEcm2zEpX3LF88a9UMl-29" value="" style="edgeStyle=orthogonalEdgeStyle;rounded=0;orthogonalLoop=1;jettySize=auto;html=1;" edge="1" parent="1" source="yrEcm2zEpX3LF88a9UMl-25" target="yrEcm2zEpX3LF88a9UMl-28">
          <mxGeometry relative="1" as="geometry" />
        </mxCell>
        <mxCell id="yrEcm2zEpX3LF88a9UMl-25" value="użytkownik rozwiązuje zadania, uczy się" style="whiteSpace=wrap;html=1;rounded=1;" vertex="1" parent="1">
          <mxGeometry x="270" y="435" width="120" height="60" as="geometry" />
        </mxCell>
        <mxCell id="yrEcm2zEpX3LF88a9UMl-27" value="" style="endArrow=classic;html=1;rounded=0;exitX=0;exitY=0.5;exitDx=0;exitDy=0;entryX=1;entryY=0.5;entryDx=0;entryDy=0;" edge="1" parent="1" source="yrEcm2zEpX3LF88a9UMl-23" target="yrEcm2zEpX3LF88a9UMl-25">
          <mxGeometry width="50" height="50" relative="1" as="geometry">
            <mxPoint x="380" y="290" as="sourcePoint" />
            <mxPoint x="430" y="240" as="targetPoint" />
          </mxGeometry>
        </mxCell>
        <mxCell id="yrEcm2zEpX3LF88a9UMl-28" value="wyjście z aplikacji" style="ellipse;whiteSpace=wrap;html=1;rounded=1;" vertex="1" parent="1">
          <mxGeometry x="290" y="565" width="80" height="80" as="geometry" />
        </mxCell>
      </root>
    </mxGraphModel>
  </diagram>
</mxfile>
